<?xml version="1.0" encoding="UTF-8" standalone="no"?>
<!-- Created with Inkscape (http://www.inkscape.org/) -->

<svg
   xmlns:dc="http://purl.org/dc/elements/1.1/"
   xmlns:cc="http://creativecommons.org/ns#"
   xmlns:rdf="http://www.w3.org/1999/02/22-rdf-syntax-ns#"
   xmlns:svg="http://www.w3.org/2000/svg"
   xmlns="http://www.w3.org/2000/svg"
   xmlns:sodipodi="http://sodipodi.sourceforge.net/DTD/sodipodi-0.dtd"
   xmlns:inkscape="http://www.inkscape.org/namespaces/inkscape"
   width="744.09448"
   height="400"
   id="svg2"
   version="1.1"
   inkscape:version="0.48.2 r9819"
   sodipodi:docname="mpod-logo.svg">
  <defs
     id="defs4" />
  <sodipodi:namedview
     id="base"
     pagecolor="#3c3c3c"
     bordercolor="#666666"
     borderopacity="1.0"
     inkscape:pageopacity="0"
     inkscape:pageshadow="2"
     inkscape:zoom="0.32"
     inkscape:cx="999.84204"
     inkscape:cy="-603.89031"
     inkscape:document-units="px"
     inkscape:current-layer="layer1"
     showgrid="false"
     inkscape:window-width="1844"
     inkscape:window-height="1323"
     inkscape:window-x="585"
     inkscape:window-y="351"
     inkscape:window-maximized="0"
     showguides="true"
     inkscape:guide-bbox="true" />
  <metadata
     id="metadata7">
    <rdf:RDF>
      <cc:Work
         rdf:about="">
        <dc:format>image/svg+xml</dc:format>
        <dc:type
           rdf:resource="http://purl.org/dc/dcmitype/StillImage" />
        <dc:title></dc:title>
      </cc:Work>
    </rdf:RDF>
  </metadata>
  <g
     inkscape:label="Layer 1"
     inkscape:groupmode="layer"
     id="layer1"
     transform="translate(0,-652.36218)">
    <text
       transform="scale(1.0594029,0.94392795)"
       xml:space="preserve"
       style="font-size:39.15516281000000021px;font-style:normal;font-weight:normal;line-height:125%;letter-spacing:0px;word-spacing:0px;fill:#ffffff;fill-opacity:1;stroke:none;font-family:Sans;stroke-opacity:1;stroke-linejoin:round;stroke-width:17.49999993000000131;stroke-miterlimit:4;stroke-dasharray:none"
       x="-2.3416924"
       y="1007.2398"
       id="text4070"
       sodipodi:linespacing="125%"><tspan
         sodipodi:role="line"
         id="tspan4072"
         x="-2.3416924"
         y="1007.2398"
         style="font-size:293.66378783999999769px;font-style:normal;font-variant:normal;font-weight:500;font-stretch:normal;letter-spacing:0px;writing-mode:lr-tb;fill:#ffffff;fill-opacity:1;font-family:Futura;-inkscape-font-specification:Futura Medium;stroke:none;stroke-opacity:1;stroke-linejoin:round;stroke-width:17.49999993000000131;stroke-miterlimit:4;stroke-dasharray:none"
         dx="0">m</tspan></text>
    <path
       transform="matrix(1.0005752,0,0,0.98762278,42.161168,559.09287)"
       d="m 332.04224,329.65091 c 0,30.04507 -24.04104,54.40141 -53.69718,54.40141 -29.65613,0 -53.69718,-24.35634 -53.69718,-54.40141 0,-30.04507 24.04105,-54.40141 53.69718,-54.40141 29.65614,0 53.69718,24.35634 53.69718,54.40141 z"
       sodipodi:ry="54.401409"
       sodipodi:rx="53.697182"
       sodipodi:cy="329.65091"
       sodipodi:cx="278.34506"
       id="path4076"
       style="fill:none;stroke:#ffffff;stroke-width:32.73773574999999880;stroke-miterlimit:4;stroke-opacity:1;stroke-dasharray:none"
       sodipodi:type="arc" />
    <path
       transform="matrix(1.0005752,0,0,0.98762278,374.16117,559.09287)"
       d="m 332.04224,329.65091 c 0,30.04507 -24.04104,54.40141 -53.69718,54.40141 -29.65613,0 -53.69718,-24.35634 -53.69718,-54.40141 0,-30.04507 24.04105,-54.40141 53.69718,-54.40141 29.65614,0 53.69718,24.35634 53.69718,54.40141 z"
       sodipodi:ry="54.401409"
       sodipodi:rx="53.697182"
       sodipodi:cy="329.65091"
       sodipodi:cx="278.34506"
       id="path4078"
       style="fill:none;stroke:#ffffff;stroke-width:32.73773574999999880;stroke-miterlimit:4;stroke-opacity:1;stroke-dasharray:none"
       sodipodi:type="arc" />
    <rect
       y="722.138"
       x="690.84937"
       height="228.16901"
       width="34.154907"
       id="rect4080"
       style="fill:#ffffff;fill-opacity:1;stroke:none" />
    <rect
       style="fill:#ffffff;fill-opacity:1;stroke:none"
       id="rect4082"
       width="34.154907"
       height="203.16901"
       x="-282.42688"
       y="-1022.2692"
       transform="scale(-1,-1)" />
    <path
       transform="matrix(1.193097,0,0,1.177652,154.56002,496.44915)"
       d="m 332.04224,329.65091 c 0,30.04507 -24.04104,54.40141 -53.69718,54.40141 -29.65613,0 -53.69718,-24.35634 -53.69718,-54.40141 0,-30.04507 24.04105,-54.40141 53.69718,-54.40141 29.65614,0 53.69718,24.35634 53.69718,54.40141 z"
       sodipodi:ry="54.401409"
       sodipodi:rx="53.697182"
       sodipodi:cy="329.65091"
       sodipodi:cx="278.34506"
       id="path4090"
       style="fill:none;stroke:#ffffff;stroke-width:8.43633175000000080;stroke-miterlimit:4;stroke-opacity:1;stroke-dasharray:none"
       sodipodi:type="arc" />
    <g
       id="g4180"
       transform="translate(3.8669906,0.27621359)">
      <path
         transform="matrix(1.1719946,0.24464076,-0.23644053,1.1327099,562.03081,1107.5266)"
         d="m -70.003569,-304.30258 c 0,17.47596 -13.692193,31.64303 -30.582371,31.64303 -16.89017,0 -30.58237,-14.16707 -30.58237,-31.64303 0,-17.47596 13.6922,-31.64303 30.58237,-31.64303 16.890178,0 30.582371,14.16707 30.582371,31.64303 z"
         sodipodi:ry="31.643028"
         sodipodi:rx="30.582369"
         sodipodi:cy="-304.30258"
         sodipodi:cx="-100.58594"
         id="path4092"
         style="fill:none;stroke:#ffffff;stroke-width:8.49604225;stroke-linecap:round;stroke-linejoin:round;stroke-miterlimit:4;stroke-opacity:1;stroke-dasharray:none"
         sodipodi:type="arc" />
      <path
         inkscape:connector-curvature="0"
         id="path4094"
         d="m 507.65161,775.13345 -8.95816,42.91563"
         style="fill:none;stroke:#ffffff;stroke-width:10;stroke-linecap:butt;stroke-linejoin:miter;stroke-miterlimit:4;stroke-opacity:1;stroke-dasharray:none" />
    </g>
    <g
       id="g4100"
       transform="matrix(-0.77496332,0.63200622,-0.63200622,-0.77496332,765.62337,1341.4499)"
       style="stroke:#ffffff;stroke-opacity:1">
      <path
         sodipodi:type="arc"
         style="fill:none;stroke:#ffffff;stroke-width:8.49604225;stroke-linecap:round;stroke-linejoin:round;stroke-miterlimit:4;stroke-opacity:1;stroke-dasharray:none"
         id="path4102"
         sodipodi:cx="-100.58594"
         sodipodi:cy="-304.30258"
         sodipodi:rx="30.582369"
         sodipodi:ry="31.643028"
         d="m -70.003569,-304.30258 c 0,17.47596 -13.692193,31.64303 -30.582371,31.64303 -16.89017,0 -30.58237,-14.16707 -30.58237,-31.64303 0,-17.47596 13.6922,-31.64303 30.58237,-31.64303 16.890178,0 30.582371,14.16707 30.582371,31.64303 z"
         transform="matrix(1.1972554,0,0,1.157124,51.147727,733.06298)" />
      <path
         style="fill:none;stroke:#ffffff;stroke-width:10;stroke-linecap:butt;stroke-linejoin:miter;stroke-miterlimit:4;stroke-opacity:1;stroke-dasharray:none"
         d="m -70.003571,-253.56767 0,43.84062"
         id="path4104"
         inkscape:connector-curvature="0"
         transform="translate(0,672.36218)" />
    </g>
    <path
       sodipodi:type="arc"
       style="fill:none;stroke:#ffffff;stroke-width:11.78822231;stroke-linecap:round;stroke-linejoin:round;stroke-miterlimit:4;stroke-opacity:1;stroke-dasharray:none"
       id="path4108"
       sodipodi:cx="-100.58594"
       sodipodi:cy="-304.30258"
       sodipodi:rx="30.582369"
       sodipodi:ry="31.643028"
       d="m -70.003569,-304.30258 c 0,17.47596 -13.692193,31.64303 -30.582371,31.64303 -16.89017,0 -30.58237,-14.16707 -30.58237,-31.64303 0,-17.47596 13.6922,-31.64303 30.58237,-31.64303 16.890178,0 30.582371,14.16707 30.582371,31.64303 z"
       transform="matrix(-0.69067953,-0.51724251,0.49990481,-0.66752833,478.97507,719.14622)" />
    <path
       style="fill:none;stroke:#ffffff;stroke-width:10;stroke-linecap:butt;stroke-linejoin:miter;stroke-miterlimit:4;stroke-opacity:1;stroke-dasharray:none"
       d="m 415.59179,954.90843 22.36564,-22.18914"
       id="path4110"
       inkscape:connector-curvature="0" />
  </g>
</svg>
